<svg width="16" height="16" viewBox="0 0 16 16" fill="none" xmlns="http://www.w3.org/2000/svg">
<g clip-path="url(#clip0_492_2188)">
<path d="M12.2677 2.64775C12.0876 2.64775 11.9316 2.79967 11.8235 2.90484C11.5954 3.13857 11.5354 3.46578 11.5594 3.68782C11.5594 3.74625 11.5234 3.73456 11.6074 3.92154C11.7275 4.19032 11.7275 4.33055 11.6675 4.41236C11.5354 4.56428 11.2113 4.41236 10.8631 4.61102C10.647 4.73957 10.563 4.92655 10.527 4.99666C10.3349 5.38231 10.587 5.59266 10.479 5.95493C10.3229 6.49249 9.65065 6.46912 9.57862 6.92488C9.5306 7.27546 9.87874 7.42738 9.83072 7.78965C9.80671 7.96494 9.67466 8.15192 9.32652 8.36227C9.19447 8.64274 9.67466 8.87646 9.65065 9.25042C9.63864 9.57763 9.25449 9.71787 9.0384 9.98665C9.20647 9.64775 9.37454 9.34391 8.7863 8.93489C7.36974 7.94157 9.84272 8.36227 8.66625 7.2404C8.03 6.78464 8.22208 6.51586 8.55821 6.32888C9.63864 5.87312 8.95437 5.62772 8.95437 5.62772C8.13804 5.27713 8.7863 4.69282 8.7863 4.69282C9.87874 3.47746 8.58222 4.1202 8.7863 3.51252C8.7863 3.51252 9.30251 2.63606 8.71427 2.68281C7.76589 2.71787 8.90635 1.36227 7.57382 1.01169C7.16565 1.01169 7.18966 1.32721 7.2737 1.596C7.42976 1.89984 6.81751 2.32054 7.33372 2.41403C8.00599 2.62438 7.56181 2.96327 7.56181 2.96327C7.0216 3.23206 7.68186 3.44241 7.75389 3.74625C7.81391 3.88648 7.89795 4.09683 7.80191 4.29549C7.59783 4.73957 6.70947 4.57596 6.55341 4.96161C6.42136 5.3005 7.0336 5.61603 6.91355 6.04842C6.80551 6.42237 6.2773 6.38731 6.20527 6.7379C6.12124 7.13523 6.75749 7.40401 6.64945 7.8364C6.58942 8.11686 6.2773 8.15192 6.2773 8.4207C6.2773 8.50251 6.21727 8.66611 6.64945 9.00501C6.87754 9.19199 7.04561 9.44908 7.10563 9.61269C7.16565 9.7763 7.20167 10.0918 6.84152 10.6177C6.73348 10.5242 6.63744 10.4775 6.55341 10.3255C6.45737 10.1386 6.5294 10.0685 6.44537 9.89316C6.38534 9.75292 6.31331 9.74124 5.98918 9.47246C5.76109 9.28548 5.64104 9.1803 5.61703 9.12187C5.44897 8.81803 5.73708 8.60768 5.61703 8.28047C5.47298 7.88314 4.95677 7.95326 4.86073 7.60267C4.7767 7.27546 5.16085 7.03005 5.00479 6.72621C4.95677 6.62104 4.89675 6.62104 4.7887 6.45743C4.71667 6.36394 4.65665 6.22371 4.60863 5.96661C4.68066 5.56928 5.32892 5.34725 5.07682 4.83306C4.76469 4.01503 5.46097 3.96828 5.19687 3.26711C5.13684 2.88147 4.86073 1.47913 4.33252 1.47913C3.66025 1.58431 4.96877 1.86478 4.34453 3.50084C4.34453 3.5359 4.34452 3.6995 4.26049 3.73456C3.37214 3.5359 4.00839 4.57596 3.73228 4.798C3.66025 4.85643 3.60023 4.78631 3.45617 4.82137C3.21607 4.8798 3.024 5.17196 2.98798 5.42905C2.91595 5.90818 3.43216 6.04842 3.39615 6.51586C3.36013 6.93656 2.93996 7.0768 3.036 7.35726C3.12004 7.60267 3.43216 7.56762 3.5402 7.8364C3.66025 8.14024 3.32412 8.37396 3.38414 8.70117C3.43216 8.91152 3.64825 9.14524 4.2725 9.42571C4.5246 9.8581 3.62424 10.6528 4.99278 10.5943C5.13684 10.606 5.37694 10.6528 5.54501 10.8397C5.94116 11.2488 5.44897 11.8214 5.76109 12.3706C6.10923 12.9783 6.98558 12.768 7.26169 13.4224C7.38174 13.7028 7.23768 13.773 7.40575 14.1469C7.40575 14.1469 7.40575 14.1703 7.42976 14.1937C7.70587 14.778 8.23408 14.9533 8.23408 14.9533C8.2821 14.9649 8.35413 14.9883 8.46217 15C8.49819 15.0234 8.54621 15 8.60623 14.9649C8.88234 14.8715 9.50659 14.6144 10.0228 14.0184C10.551 13.4107 10.6831 12.7563 10.7191 12.4641C10.6951 11.6578 11.8955 11.5643 11.2713 10.6528C10.527 9.5192 12.1236 9.82304 11.5354 8.88815C10.6951 8.23373 12.1116 8.26878 11.6314 7.50918C11.5474 7.38064 11.5834 7.27546 11.5834 7.25209C11.5954 6.99499 12.0036 6.97162 12.2557 6.70284C12.5678 6.34057 12.2197 5.9783 12.4958 5.28882C12.6278 4.94992 12.7599 4.91486 12.8559 4.75125C12.8559 4.75125 12.9039 4.66945 12.94 4.56428C13.06 4.22538 12.8079 2.70618 12.2437 2.67112L12.2677 2.64775ZM8.91836 10.197C8.94236 10.1152 8.99038 10.0451 9.0384 9.97496C9.00239 10.0217 8.96637 10.0918 8.94236 10.1853C8.91836 10.2554 8.91836 10.3372 8.91836 10.419C8.94236 10.6878 9.08642 10.9449 9.12244 11.0968C9.11043 11.0735 9.08642 11.0267 9.06241 10.98C8.95437 10.7462 8.85833 10.5593 8.88234 10.3489C8.88234 10.2788 8.90635 10.2204 8.91836 10.197Z" fill="#212121"/>
</g>
<defs>
<clipPath id="clip0_492_2188">
<rect width="10" height="14" fill="white" transform="translate(3 1)"/>
</clipPath>
</defs>
</svg>
