<svg width="16" height="16" viewBox="0 0 16 16" fill="none" xmlns="http://www.w3.org/2000/svg">
<path d="M11.9972 9.82385C11.9696 9.18858 11.7709 8.57266 11.4562 8.02025L9.83692 5.18367L8.00506 2.00829L8.00782 2L8.00414 2.00644L8.00046 2L6.164 5.18367L4.54468 8.02025C4.2291 8.57266 4.03128 9.18858 4.00368 9.82385C4.00092 9.88093 4 9.93893 4 9.99693C4 12.2084 5.79137 14 8.00046 14C8.00046 14 8.00322 14 8.00414 14C8.00506 14 8.0069 14 8.00782 14C8.01518 14 8.02254 14 8.0299 14C8.10075 14 8.17067 13.9972 8.23968 13.9926C8.26084 13.9917 8.28108 13.9899 8.30224 13.988C8.36113 13.9834 8.41909 13.9779 8.47705 13.9715C8.48718 13.9705 8.4973 13.9696 8.50742 13.9687C8.5065 13.9687 8.50466 13.9687 8.50374 13.9687C10.4754 13.7201 12 12.0381 12 9.99785C12 9.93985 11.9991 9.88185 11.9963 9.82477L11.9972 9.82385Z" fill="#212121"/>
</svg>
