<svg width="16" height="16" viewBox="0 0 16 16" fill="none" xmlns="http://www.w3.org/2000/svg">
<path d="M11.9148 7.18647C11.9148 6.55408 11.589 5.995 11.0934 5.66506C11.3168 5.3901 11.4494 5.04412 11.4494 4.66606C11.4494 3.77933 10.721 3.06216 9.82044 3.06216C9.79717 3.06216 9.7739 3.06445 9.75063 3.06674C9.79484 2.9201 9.82044 2.76658 9.82044 2.6039C9.82044 1.71717 9.09206 1 8.19148 1C7.2909 1 6.56252 1.71717 6.56252 2.6039C6.56252 2.76429 6.58812 2.9201 6.63233 3.06674C6.60906 3.06674 6.58579 3.06216 6.56252 3.06216C5.66194 3.06216 4.93356 3.77933 4.93356 4.66606C4.93356 5.04412 5.06853 5.39239 5.2896 5.66506C4.79393 5.995 4.46814 6.55178 4.46814 7.18647C4.46814 7.82116 4.79393 8.37794 5.2896 8.70788C5.0662 8.98284 4.93356 9.32882 4.93356 9.70689C4.93356 10.5936 5.66194 11.3108 6.56252 11.3108H9.82044C10.721 11.3108 11.4494 10.5936 11.4494 9.70689C11.4494 9.32882 11.3144 8.98055 11.0934 8.70788C11.589 8.37794 11.9148 7.82116 11.9148 7.18647Z" fill="#F9F9F9"/>
<path d="M8.63828 14.7019V11.3108H8.34041H8.04255V14.7019C8.04255 15.0196 8.04255 14.9998 8.34041 14.9998C8.63828 14.9998 8.63828 15.0196 8.63828 14.7019Z" fill="#F9F9F9"/>
</svg>
