<svg width="16" height="16" viewBox="0 0 16 16" fill="none" xmlns="http://www.w3.org/2000/svg">
<path d="M10.5833 7.46188H5.41667V5.35223C5.41667 4.71426 6.07377 4.06849 7.05882 4.06849H8.94118C9.92623 4.06849 10.5833 4.71426 10.5833 5.35223V7.46188ZM8.87745 2.84649H7.12255V2.72875C7.12255 2.62741 7.25293 2.41667 7.58824 2.41667H8.41177C8.74707 2.41667 8.87745 2.62741 8.87745 2.72875V2.84649ZM5.41667 11.5503H10.5833V12.7854C10.5833 13.1551 10.1896 13.5833 9.52941 13.5833H6.47059C5.81041 13.5833 5.41667 13.1551 5.41667 12.7854V11.5503ZM5.41667 8.68387H10.5833V10.3283H5.41667V8.68387Z" fill="#F9F9F9" stroke="#F9F9F9" stroke-width="0.833333"/>
</svg>
