<svg width="16" height="16" viewBox="0 0 16 16" fill="none" xmlns="http://www.w3.org/2000/svg">
<path d="M8.00005 6.51134C9.07709 6.51134 9.95515 5.61808 9.95515 4.52417C9.95515 4.0031 9.75617 3.52735 9.43084 3.17134C9.58561 2.89624 9.74037 2.62438 9.8983 2.34928C9.88882 2.32016 9.8067 2.10331 9.58245 2.02564C9.43716 1.97709 9.31398 2.00946 9.2666 2.02564C9.1529 2.27485 9.03603 2.52081 8.92233 2.77002C8.64754 2.62114 8.33485 2.537 8.00321 2.537C7.67157 2.537 7.35888 2.62114 7.08409 2.77002C6.97039 2.52081 6.85352 2.27485 6.73982 2.02564C6.69244 2.00946 6.56926 1.97709 6.42397 2.02564C6.19972 2.10331 6.1176 2.32016 6.10812 2.34928C6.26289 2.62438 6.41765 2.89624 6.57558 3.17134C6.25025 3.52735 6.05127 3.99987 6.05127 4.52417C6.05127 5.62132 6.92933 6.51134 8.00637 6.51134H8.00005Z" fill="#F9F9F9"/>
<path d="M5.41318 4.52077C5.41318 4.41721 5.41949 4.31688 5.42897 4.21655C3.75497 3.87025 2.28312 4.39455 2.0336 5.44639C1.78408 6.52736 2.94956 7.70219 4.68672 8.12616C4.74042 8.13911 4.79095 8.14882 4.84465 8.15853C4.85412 8.12293 4.8636 8.08733 4.87623 8.05173C5.10996 7.2944 5.48582 6.63417 5.96591 6.14546C5.61848 5.69884 5.41318 5.13246 5.41318 4.52077Z" fill="#F9F9F9"/>
<path d="M7.99988 8.49886C7.0776 8.49886 6.17743 8.6445 5.31517 8.91959C5.27411 9.15585 5.24568 9.40182 5.23621 9.65103C6.1269 9.37917 7.05233 9.23353 7.99988 9.23353C8.94742 9.23353 9.87917 9.37593 10.7635 9.63808C10.7509 9.38564 10.7225 9.13967 10.6814 8.90341C9.55069 8.55388 8.53366 8.49562 7.99988 8.49562V8.49886Z" fill="#F9F9F9"/>
<path d="M5.25218 10.324C5.30272 10.7189 5.42906 11.0975 5.59961 11.4471C6.3766 11.2691 7.17885 11.1784 7.9969 11.1784C8.96655 11.1784 9.80987 11.3144 10.3973 11.4471C10.5679 11.0943 10.6942 10.7156 10.7448 10.3208C9.87304 10.0425 8.91286 9.88387 7.9969 9.88387C7.08094 9.88387 6.13024 10.036 5.24902 10.324H5.25218Z" fill="#F9F9F9"/>
<path d="M5.94067 12.0359C6.68607 13.1557 7.7568 13.9001 7.82629 13.9454C7.93367 14.0198 8.06633 14.0166 8.17372 13.9454C8.24321 13.9001 9.31393 13.1557 10.0593 12.0359C9.51923 11.9258 8.80541 11.8255 8 11.8255C7.29882 11.8255 6.61027 11.8999 5.94067 12.0359Z" fill="#F9F9F9"/>
<path d="M7.99994 7.15902C7.41563 7.15902 6.87868 6.95836 6.44281 6.62501C6.43334 6.61854 6.42386 6.60883 6.41123 6.60236C6.01958 7.00367 5.70689 7.55063 5.50159 8.18497C6.31016 7.9649 7.14716 7.85162 8.0031 7.85162C8.85905 7.85162 9.69289 7.96813 10.5015 8.18174C10.2962 7.5474 9.98031 7.00044 9.59182 6.60236L9.56023 6.62501C9.12436 6.95836 8.58742 7.15902 8.0031 7.15902H7.99994Z" fill="#F9F9F9"/>
<path d="M13.9664 5.44319C13.7168 4.39458 12.245 3.87028 10.571 4.21658C10.5805 4.31691 10.5868 4.41724 10.5868 4.5208C10.5868 5.13249 10.3815 5.69563 10.0341 6.14226L10.0404 6.14873C10.5141 6.6342 10.89 7.29443 11.1269 8.05499C11.1364 8.08736 11.149 8.12296 11.1553 8.15856C11.209 8.14885 11.2627 8.1359 11.3164 8.12296C13.0504 7.70222 14.2159 6.52739 13.9664 5.44319Z" fill="#F9F9F9"/>
</svg>
