<svg width="24" height="24" viewBox="0 0 24 24" fill="none" xmlns="http://www.w3.org/2000/svg">
<path d="M16.4 20.1001H3.6C2.2 20.1001 1 18.9001 1 17.5001V10.2001C1 8.8001 2.2 7.6001 3.6 7.6001H16.4C17.8 7.6001 19 8.8001 19 10.2001V17.5001C19 18.9001 17.8 20.1001 16.4 20.1001ZM3.6 9.6001C3.3 9.6001 3 9.9001 3 10.2001V17.5001C3 17.8001 3.3 18.1001 3.6 18.1001H16.4C16.7 18.1001 17 17.8001 17 17.5001V10.2001C17 9.9001 16.7 9.6001 16.4 9.6001H3.6Z" fill="black"/>
<path d="M22 16.1C21.4 16.1 21 15.7 21 15.1V6.7C21 6.3 20.8 6 20.5 6H5.09998C4.49998 6 4.09998 5.6 4.09998 5C4.09998 4.4 4.49998 4 5.09998 4H20.5C21.9 4 23 5.2 23 6.7V15.1C23 15.6 22.6 16.1 22 16.1Z" fill="black"/>
<path d="M9.99999 17.0001C8.19999 17.0001 6.79999 15.6001 6.79999 13.8001C6.79999 12.0001 8.19999 10.6001 9.99999 10.6001C11.8 10.6001 13.2 12.0001 13.2 13.8001C13.2 15.6001 11.8 17.0001 9.99999 17.0001ZM9.99999 12.7001C9.29999 12.7001 8.79999 13.2001 8.79999 13.9001C8.79999 14.6001 9.29999 15.0001 9.99999 15.0001C10.7 15.0001 11.2 14.5001 11.2 13.8001C11.2 13.1001 10.7 12.7001 9.99999 12.7001Z" fill="black"/>
<path d="M4.90001 14.5001C5.28661 14.5001 5.60001 14.1867 5.60001 13.8001C5.60001 13.4135 5.28661 13.1001 4.90001 13.1001C4.51341 13.1001 4.20001 13.4135 4.20001 13.8001C4.20001 14.1867 4.51341 14.5001 4.90001 14.5001Z" fill="black"/>
<path d="M15.1 14.5001C15.4866 14.5001 15.8 14.1867 15.8 13.8001C15.8 13.4135 15.4866 13.1001 15.1 13.1001C14.7134 13.1001 14.4 13.4135 14.4 13.8001C14.4 14.1867 14.7134 14.5001 15.1 14.5001Z" fill="black"/>
</svg>
